<?xml version="1.0" encoding="iso-8859-1"?>
<!-- Generator: Adobe Illustrator 16.0.0, SVG Export Plug-In . SVG Version: 6.00 Build 0)  -->
<!DOCTYPE svg PUBLIC "-//W3C//DTD SVG 1.1//EN" "http://www.w3.org/Graphics/SVG/1.1/DTD/svg11.dtd">
<svg version="1.1" id="Capa_1" xmlns="http://www.w3.org/2000/svg" xmlns:xlink="http://www.w3.org/1999/xlink" x="0px" y="0px"
	 width="306.989px" fill="#1E90FF" height="306.989px" viewBox="0 0 306.989 306.989" style="enable-background:new 0 0 306.989 306.989;"
	 xml:space="preserve">
<g>
	<g>
		<path d="M238.562,0h31.753c6.228,0,11.277,5.062,11.277,11.283v30.378h-54.313V11.283C227.278,5.062,232.34,0,238.562,0z"/>
		<path d="M36.683,0h31.75C74.657,0,79.71,5.062,79.71,11.283v29.195H25.397V11.283C25.397,5.062,30.459,0,36.683,0z"/>
		<path d="M278.367,207.43c-13.343,58.619-64.689,99.56-124.87,99.56c-60.171,0-111.521-40.94-124.863-99.554
			c-2.147-9.415-3.237-19.029-3.237-28.553V67.896H79.71v110.986c0,40.683,33.101,73.787,73.787,73.787
			c40.683,0,73.781-33.104,73.781-73.787V69.085h54.313v110.032C281.573,188.562,280.492,198.099,278.367,207.43z"/>
	</g>
</g>
<g>
</g>
<g>
</g>
<g>
</g>
<g>
</g>
<g>
</g>
<g>
</g>
<g>
</g>
<g>
</g>
<g>
</g>
<g>
</g>
<g>
</g>
<g>
</g>
<g>
</g>
<g>
</g>
<g>
</g>
</svg>
